<svg width="20.000000" height="20.000000" viewBox="0 0 20 20" fill="none" xmlns="http://www.w3.org/2000/svg" xmlns:xlink="http://www.w3.org/1999/xlink">
	<desc>
			Created with Pixso.
	</desc>
	<defs>
		<clipPath id="clip3_760">
			<rect id="Property 1=command" rx="-0.500000" width="19.000000" height="19.000000" transform="translate(0.500000 0.500000)" fill="white" fill-opacity="0"/>
		</clipPath>
	</defs>
	<rect id="Property 1=command" rx="-0.500000" width="19.000000" height="19.000000" transform="translate(0.500000 0.500000)" fill="#FFFFFF" fill-opacity="0"/>
	<g clip-path="url(#clip3_760)">
		<path id="Vector" d="M13.23 3.23C12.76 3.7 12.5 4.33 12.5 5L12.5 15C12.5 15.66 12.76 16.29 13.23 16.76C13.7 17.23 14.33 17.5 15 17.5C15.66 17.5 16.29 17.23 16.76 16.76C17.23 16.29 17.5 15.66 17.5 15C17.5 14.33 17.23 13.7 16.76 13.23C16.29 12.76 15.66 12.5 15 12.5L5 12.5C4.33 12.5 3.7 12.76 3.23 13.23C2.76 13.7 2.5 14.33 2.5 15C2.5 15.66 2.76 16.29 3.23 16.76C3.7 17.23 4.33 17.5 5 17.5C5.66 17.5 6.29 17.23 6.76 16.76C7.23 16.29 7.5 15.66 7.5 15L7.5 5C7.5 4.33 7.23 3.7 6.76 3.23C6.29 2.76 5.66 2.5 5 2.5C4.33 2.5 3.7 2.76 3.23 3.23C2.76 3.7 2.5 4.33 2.5 5C2.5 5.66 2.76 6.29 3.23 6.76C3.7 7.23 4.33 7.5 5 7.5L15 7.5C15.66 7.5 16.29 7.23 16.76 6.76C17.23 6.29 17.5 5.66 17.5 5C17.5 4.33 17.23 3.7 16.76 3.23C16.29 2.76 15.66 2.5 15 2.5C14.33 2.5 13.7 2.76 13.23 3.23Z" stroke="#FFFFFF" stroke-opacity="1.000000" stroke-width="1.500000" stroke-linejoin="round"/>
	</g>
</svg>
