<svg width="40.000000" height="40.000000" viewBox="0 0 40 40" fill="none" xmlns="http://www.w3.org/2000/svg" xmlns:xlink="http://www.w3.org/1999/xlink">
	<desc>
			Created with Pixso.
	</desc>
	<defs/>
	<path id="bg" d="M20 0C8.95 0 0 8.95 0 20C0 31.04 8.95 40 20 40C31.04 40 40 31.04 40 20C40 8.95 31.04 0 20 0Z" fill="#FFFFFF" fill-opacity="1.000000" fill-rule="evenodd"/>
	<path id="google" d="M29.78 20.22C29.78 19.51 29.72 18.83 29.6 18.18L20.18 18.18L20.18 22.05L25.56 22.05C25.33 23.3 24.63 24.35 23.57 25.06L23.57 27.57L26.8 27.57C28.69 25.83 29.78 23.27 29.78 20.22Z" fill="#4285F4" fill-opacity="1.000000" fill-rule="evenodd"/>
	<path id="google" d="M20.18 30C22.88 30 25.15 29.1 26.8 27.57L23.57 25.06C22.67 25.66 21.53 26.02 20.18 26.02C17.58 26.02 15.37 24.26 14.59 21.89L11.25 21.89L11.25 24.49C12.89 27.75 16.27 30 20.18 30Z" fill="#34A853" fill-opacity="1.000000" fill-rule="evenodd"/>
	<path id="google" d="M14.59 21.89C14.39 21.3 14.27 20.65 14.27 20C14.27 19.34 14.39 18.7 14.59 18.09L14.59 15.5L11.25 15.5C10.57 16.85 10.18 18.38 10.18 20C10.18 21.61 10.57 23.14 11.25 24.49L14.59 21.89Z" fill="#FBBC05" fill-opacity="1.000000" fill-rule="evenodd"/>
	<path id="google" d="M20.18 13.97C21.65 13.97 22.97 14.48 24 15.47L26.87 12.6C25.14 10.99 22.88 10 20.18 10C16.27 10 12.89 12.24 11.25 15.5L14.59 18.1C15.37 15.73 17.58 13.97 20.18 13.97Z" fill="#EA4335" fill-opacity="1.000000" fill-rule="evenodd"/>
</svg>
