<svg width="80.711182" height="94.580078" viewBox="0 0 80.7112 94.5801" fill="none" xmlns="http://www.w3.org/2000/svg" xmlns:xlink="http://www.w3.org/1999/xlink">
	<desc>
			Created with Pixso.
	</desc>
	<defs/>
	<path id="Vector 1" d="M20.71 88L18.71 88L18.71 86L17.71 86.5L17.21 89L15.21 89.5C13.87 91.16 11.11 94.5 10.71 94.5C10.21 94.5 6.71 95 4.71 93.5C2.71 92 4.21 89.5 4.21 88C4.21 86.79 2.87 87.5 2.21 88L2.21 83.5L3.71 82C3.21 82.16 2.11 82.2 1.71 81C1.21 79.5 -3.29 73 4.71 68.5C6.31 67.7 7.37 67.16 7.71 67L8.21 64.5L12.71 59L15.71 57.5C17.37 55.66 21.01 51.2 22.21 48C23.71 44 25.71 35.5 28.71 33.5C31.11 31.9 32.37 28.16 32.71 26.5L25.21 29L29.71 24.5L28.71 22L45.21 9L62.71 0C66.71 0.66 74.91 2.2 75.71 3C76.51 3.79 79.37 7.33 80.71 9L75.71 11L79.71 13.5C79.54 14 79.11 15 78.71 15C78.31 15 77.21 15 76.71 15C76.54 15.33 76.11 16.09 75.71 16.5C75.31 16.9 74.54 17.66 74.21 18L74.21 19.5C73.87 19.66 73.21 19.9 73.21 19.5C73.21 19 73.21 18 73.21 17.5C73.21 17.09 73.87 16.33 74.21 16L74.21 15C74.37 14.5 74.41 13.5 73.21 13.5C71.71 13.5 70.21 9.5 69.71 10C69.21 10.5 68.71 10.5 68.21 11C67.81 11.4 65.71 12.16 64.71 12.5L64.21 16.5L63.71 20L61.71 22L61.71 24C60.87 23.33 59.01 22 58.21 22C57.41 22 56.54 22.66 56.21 23C55.87 22.66 54.91 22 53.71 22C52.51 22 51.21 19 50.71 17.5C50.21 17.5 49.21 17.59 49.21 18C49.21 18.4 49.21 19.5 49.21 20L47.21 20C47.21 21.33 47.11 24.09 46.71 24.5C46.31 24.9 42.21 23.66 40.21 23L40.21 28.5L37.71 27.5L34.71 32.5L35.71 35.5C34.71 36.83 32.71 39.59 32.71 40C32.71 40.4 32.71 41.5 32.71 42L29.71 42.5L29.71 50.5L27.71 53.5L28.71 54L28.71 57.5L24.71 57.5C24.21 58.33 23.21 60.09 23.21 60.5C23.21 60.9 23.21 69 23.21 73L24.71 75L24.71 77.5L22.21 77C22.37 77.66 22.91 79.09 23.71 79.5C24.51 79.9 24.04 82.33 23.71 83.5L22.21 83.5C22.37 85 22.61 88.09 22.21 88.5C21.81 88.9 21.04 89.33 20.71 89.5L20.71 89L20.71 88Z" fill="#DE8029" fill-opacity="1.000000" fill-rule="evenodd"/>
</svg>
