<svg width="20.000000" height="20.000000" viewBox="0 0 20 20" fill="none" xmlns="http://www.w3.org/2000/svg" xmlns:xlink="http://www.w3.org/1999/xlink">
	<desc>
			Created with Pixso.
	</desc>
	<defs>
		<clipPath id="clip3_747">
			<rect id="menu" rx="-0.500000" width="19.000000" height="19.000000" transform="translate(0.500000 0.500000)" fill="white" fill-opacity="0"/>
		</clipPath>
	</defs>
	<rect id="Property 1=mail" rx="-0.500000" width="19.000000" height="19.000000" transform="translate(0.500000 0.500000)" fill="#FFFFFF" fill-opacity="0"/>
	<rect id="menu" rx="-0.500000" width="19.000000" height="19.000000" transform="translate(0.500000 0.500000)" fill="#FFFFFF" fill-opacity="0"/>
	<g clip-path="url(#clip3_747)">
		<path id="Vector" d="M16.66 3.33C17.58 3.33 18.33 4.07 18.33 4.99L18.33 14.99C18.33 15.91 17.58 16.66 16.66 16.66L3.33 16.66C2.41 16.66 1.66 15.91 1.66 14.99L1.66 4.99C1.66 4.07 2.41 3.33 3.33 3.33L16.66 3.33Z" stroke="#FFFFFF" stroke-opacity="1.000000" stroke-width="1.500000" stroke-linejoin="round"/>
		<path id="Vector" d="M18.33 5.83L10.85 10.58C10.6 10.74 10.3 10.82 10 10.82C9.69 10.82 9.39 10.74 9.14 10.58L1.66 5.83" stroke="#FFFFFF" stroke-opacity="1.000000" stroke-width="1.500000" stroke-linejoin="round"/>
	</g>
</svg>
