<svg width="334.250977" height="136.365234" viewBox="0 0 334.251 136.365" fill="none" xmlns="http://www.w3.org/2000/svg" xmlns:xlink="http://www.w3.org/1999/xlink">
	<desc>
			Created with Pixso.
	</desc>
	<defs/>
	<path id="0" d="M43.98 30.27L39.39 30.27L39.39 29.63L41.79 27C42.63 26.08 43.03 25.58 43.03 24.91C43.03 24.15 42.43 23.66 41.64 23.66C40.8 23.66 40.26 24.21 40.26 25.04L39.42 25.04C39.42 23.76 40.39 22.9 41.66 22.9C42.94 22.9 43.85 23.79 43.85 24.91C43.85 25.72 43.48 26.35 42.23 27.68L40.6 29.43L40.6 29.49L43.98 29.49L43.98 30.27ZM52.82 28.34C52.81 29.52 51.8 30.37 50.35 30.37C48.88 30.37 47.87 29.52 47.87 28.34C47.87 27.42 48.48 26.64 49.28 26.49L49.28 26.45C48.58 26.27 48.14 25.6 48.14 24.83C48.14 23.72 49.07 22.9 50.35 22.9C51.61 22.9 52.54 23.72 52.55 24.83C52.54 25.6 52.09 26.27 51.41 26.45L51.41 26.49C52.19 26.64 52.81 27.42 52.82 28.34ZM36.42 23L37.31 23L37.31 30.27L36.42 30.27L36.42 23.92L36.38 23.92L34.61 25.1L34.61 24.2L36.42 23ZM49 24.89C48.99 25.64 49.55 26.14 50.35 26.14C51.13 26.14 51.69 25.64 51.69 24.89C51.69 24.15 51.15 23.66 50.35 23.66C49.53 23.66 48.99 24.15 49 24.89ZM48.74 28.29C48.73 29.07 49.35 29.59 50.35 29.59C51.33 29.59 51.94 29.07 51.95 28.29C51.94 27.47 51.26 26.89 50.35 26.89C49.41 26.89 48.73 27.47 48.74 28.29ZM45.8 29.27L46.71 29.27L46.65 29.66C46.53 30.47 46.17 31.56 46 32.04L45.36 32.04C45.45 31.59 45.65 30.63 45.76 29.67L45.8 29.27Z" fill="#000000" fill-opacity="1.000000" fill-rule="evenodd"/>
	<rect id="Rectangle 1856" rx="-0.500000" width="17.000000" height="91.000000" transform="translate(35.500000 34.773438)" fill="#DE8029" fill-opacity="1.000000"/>
	<path id="0" d="M35.98 136.27L32.31 136.27L32.31 135.76L34.23 133.66C34.91 132.92 35.22 132.52 35.22 131.99C35.22 131.37 34.74 130.99 34.11 130.99C33.44 130.99 33.01 131.42 33.01 132.09L32.34 132.09C32.34 131.06 33.11 130.37 34.13 130.37C35.15 130.37 35.88 131.09 35.88 131.99C35.88 132.63 35.59 133.13 34.59 134.2L33.28 135.6L33.28 135.64L35.98 135.64L35.98 136.27ZM29.94 130.45L30.64 130.45L30.64 136.27L29.94 136.27L29.94 131.19L29.9 131.19L28.48 132.13L28.48 131.42L29.94 130.45ZM43.87 131.91L44.54 131.91L44.54 133.81L45.66 133.81C45.76 132.62 46.53 131.85 47.62 131.85C48.8 131.85 49.6 132.75 49.6 134.11C49.6 135.46 48.8 136.36 47.62 136.36C46.54 136.36 45.78 135.61 45.66 134.44L44.54 134.44L44.54 136.27L43.87 136.27L43.87 131.91ZM40.09 131.91L40.09 135.28L42.19 131.91L42.96 131.91L42.96 136.27L42.29 136.27L42.29 132.89L40.2 136.27L39.42 136.27L39.42 131.91L40.09 131.91ZM50.69 131.91L51.36 131.91L51.36 133.78L53.45 133.78L53.45 131.91L54.12 131.91L54.12 136.27L53.45 136.27L53.45 134.41L51.36 134.41L51.36 136.27L50.69 136.27L50.69 131.91ZM58.61 136.27L57.97 136.27L57.97 134.5L56.8 134.5L55.79 136.27L55.06 136.27L56.13 134.41C55.6 134.23 55.3 133.8 55.3 133.2C55.3 132.39 55.87 131.91 56.81 131.91L58.61 131.91L58.61 136.27ZM46.31 134.11C46.31 134.99 46.72 135.76 47.62 135.76C48.52 135.76 48.93 134.99 48.93 134.11C48.93 133.24 48.52 132.45 47.62 132.45C46.72 132.45 46.31 133.24 46.31 134.11ZM56.73 133.87L57.97 133.87L57.97 132.52L56.81 132.52C56.29 132.52 55.97 132.78 55.97 133.2C55.97 133.62 56.26 133.87 56.73 133.87Z" fill="#000000" fill-opacity="1.000000" fill-rule="evenodd"/>
	<path id="0" d="M86.09 64.92C86.09 66.28 85.13 67.39 83.66 67.37C82.47 67.35 81.13 66.6 81.13 63.92C81.13 61.35 82.14 59.9 83.78 59.9C85 59.9 85.86 60.68 86.03 61.81L85.17 61.81C85 61.16 84.54 60.68 83.78 60.68C82.65 60.68 81.96 61.7 81.96 63.48L82.02 63.48C82.41 62.88 83.06 62.51 83.81 62.51C85.05 62.51 86.09 63.52 86.09 64.92ZM94.52 65.34C94.51 66.52 93.49 67.37 92.04 67.37C90.58 67.37 89.56 66.52 89.57 65.34C89.56 64.42 90.18 63.64 90.98 63.49L90.98 63.45C90.28 63.27 89.83 62.6 89.84 61.83C89.83 60.72 90.77 59.9 92.04 59.9C93.31 59.9 94.24 60.72 94.24 61.83C94.24 62.6 93.79 63.27 93.11 63.45L93.11 63.49C93.89 63.64 94.51 64.42 94.52 65.34ZM90.69 61.89C90.69 62.64 91.25 63.14 92.04 63.14C92.83 63.14 93.38 62.64 93.39 61.89C93.38 61.15 92.85 60.66 92.04 60.66C91.23 60.66 90.69 61.15 90.69 61.89ZM82.09 64.94C82.08 65.81 82.75 66.59 83.66 66.59C84.56 66.59 85.24 65.85 85.24 64.92C85.24 64.02 84.58 63.29 83.69 63.29C82.79 63.29 82.09 64.07 82.09 64.94ZM90.44 65.29C90.43 66.07 91.05 66.59 92.04 66.59C93.03 66.59 93.64 66.07 93.65 65.29C93.64 64.47 92.96 63.89 92.04 63.89C91.11 63.89 90.43 64.47 90.44 65.29ZM87.5 66.27L88.41 66.27L88.35 66.66C88.23 67.47 87.87 68.56 87.7 69.04L87.06 69.04C87.15 68.59 87.35 67.63 87.45 66.67L87.5 66.27Z" fill="#000000" fill-opacity="1.000000" fill-rule="evenodd"/>
	<rect id="Rectangle 1856" rx="-0.500000" width="17.000000" height="54.000000" transform="translate(79.500000 71.773438)" fill="#DE8029" fill-opacity="1.000000"/>
	<path id="0" d="M129.66 91.29C129.66 92.48 128.61 93.37 127.21 93.37C125.79 93.37 124.79 92.59 124.74 91.45L125.63 91.45C125.68 92.15 126.35 92.59 127.19 92.59C128.13 92.59 128.8 92.06 128.8 91.29C128.8 90.49 128.18 89.93 127.08 89.93L126.5 89.93L126.5 89.15L127.08 89.15C127.94 89.15 128.54 88.65 128.54 87.89C128.54 87.15 128.02 86.66 127.22 86.66C126.46 86.66 125.78 87.09 125.74 87.81L124.89 87.81C124.93 86.67 125.98 85.9 127.24 85.9C128.58 85.9 129.39 86.81 129.39 87.84C129.39 88.66 128.93 89.27 128.2 89.49L128.2 89.55C129.12 89.7 129.66 90.37 129.66 91.29ZM136.94 91.78L133.51 91.78L133.51 91.05L136.71 86L137.77 86L137.77 91L138.77 91L138.77 91.78L137.77 91.78L137.77 93.27L136.94 93.27L136.94 91.78ZM134.46 91L136.94 91L136.94 87.12L136.88 87.12L134.46 90.94L134.46 91ZM131.24 92.27L132.15 92.27L132.09 92.66C131.97 93.47 131.61 94.56 131.44 95.04L130.8 95.04C130.89 94.59 131.09 93.63 131.2 92.67L131.24 92.27Z" fill="#000000" fill-opacity="1.000000" fill-rule="evenodd"/>
	<rect id="Rectangle 1856" rx="-0.500000" width="17.000000" height="28.000000" transform="translate(123.500000 97.773438)" fill="#DE8029" fill-opacity="1.000000"/>
	<path id="0" d="M182.7 71.34C182.69 72.52 181.68 73.37 180.23 73.37C178.76 73.37 177.75 72.52 177.76 71.34C177.75 70.42 178.36 69.64 179.16 69.49L179.16 69.45C178.47 69.27 178.02 68.6 178.03 67.83C178.02 66.72 178.95 65.9 180.23 65.9C181.49 65.9 182.42 66.72 182.43 67.83C182.42 68.6 181.98 69.27 181.29 69.45L181.29 69.49C182.08 69.64 182.69 70.42 182.7 71.34ZM172.5 71.78L169.08 71.78L169.08 71.05L172.27 66L173.34 66L173.34 71L174.33 71L174.33 71.78L173.34 71.78L173.34 73.27L172.5 73.27L172.5 71.78ZM178.88 67.89C178.87 68.64 179.43 69.14 180.23 69.14C181.01 69.14 181.57 68.64 181.58 67.89C181.57 67.15 181.03 66.66 180.23 66.66C179.41 66.66 178.87 67.15 178.88 67.89ZM170.03 71L172.5 71L172.5 67.12L172.44 67.12L170.03 70.94L170.03 71ZM178.62 71.29C178.62 72.07 179.23 72.59 180.23 72.59C181.21 72.59 181.83 72.07 181.83 71.29C181.83 70.47 181.15 69.89 180.23 69.89C179.29 69.89 178.62 70.47 178.62 71.29ZM175.68 72.27L176.59 72.27L176.54 72.66C176.41 73.47 176.05 74.56 175.88 75.04L175.24 75.04C175.33 74.59 175.54 73.63 175.64 72.67L175.68 72.27Z" fill="#000000" fill-opacity="1.000000" fill-rule="evenodd"/>
	<rect id="Rectangle 1856" rx="-0.500000" width="17.000000" height="48.000000" transform="translate(167.500000 77.773438)" fill="#DE8029" fill-opacity="1.000000"/>
	<path id="0" d="M226.7 71.34C226.69 72.52 225.68 73.37 224.23 73.37C222.76 73.37 221.75 72.52 221.76 71.34C221.75 70.42 222.36 69.64 223.16 69.49L223.16 69.45C222.47 69.27 222.02 68.6 222.03 67.83C222.02 66.72 222.95 65.9 224.23 65.9C225.49 65.9 226.42 66.72 226.43 67.83C226.42 68.6 225.98 69.27 225.29 69.45L225.29 69.49C226.08 69.64 226.69 70.42 226.7 71.34ZM216.5 71.78L213.08 71.78L213.08 71.05L216.27 66L217.34 66L217.34 71L218.33 71L218.33 71.78L217.34 71.78L217.34 73.27L216.5 73.27L216.5 71.78ZM222.88 67.89C222.87 68.64 223.43 69.14 224.23 69.14C225.01 69.14 225.57 68.64 225.58 67.89C225.57 67.15 225.03 66.66 224.23 66.66C223.41 66.66 222.87 67.15 222.88 67.89ZM214.03 71L216.5 71L216.5 67.12L216.44 67.12L214.03 70.94L214.03 71ZM222.62 71.29C222.62 72.07 223.23 72.59 224.23 72.59C225.21 72.59 225.83 72.07 225.83 71.29C225.83 70.47 225.15 69.89 224.23 69.89C223.29 69.89 222.62 70.47 222.62 71.29ZM219.68 72.27L220.59 72.27L220.54 72.66C220.41 73.47 220.05 74.56 219.88 75.04L219.24 75.04C219.33 74.59 219.54 73.63 219.64 72.67L219.68 72.27Z" fill="#000000" fill-opacity="1.000000" fill-rule="evenodd"/>
	<rect id="Rectangle 1856" rx="-0.500000" width="17.000000" height="48.000000" transform="translate(211.500000 77.773438)" fill="#DE8029" fill-opacity="1.000000"/>
	<path id="0" d="M271.98 36.34C271.98 37.52 270.96 38.37 269.51 38.37C268.05 38.37 267.03 37.52 267.04 36.34C267.03 35.42 267.65 34.64 268.45 34.49L268.45 34.45C267.75 34.27 267.3 33.6 267.31 32.83C267.3 31.72 268.23 30.9 269.51 30.9C270.78 30.9 271.71 31.72 271.71 32.83C271.71 33.6 271.26 34.27 270.58 34.45L270.58 34.49C271.36 34.64 271.98 35.42 271.98 36.34ZM257.42 31L258.31 31L258.31 38.27L257.42 38.27L257.42 31.92L257.38 31.92L255.61 33.1L255.61 32.2L257.42 31ZM262.07 31L262.95 31L262.95 38.27L262.07 38.27L262.07 31.92L262.03 31.92L260.25 33.1L260.25 32.2L262.07 31ZM268.16 32.89C268.16 33.64 268.72 34.14 269.51 34.14C270.29 34.14 270.85 33.64 270.86 32.89C270.85 32.15 270.31 31.66 269.51 31.66C268.7 31.66 268.16 32.15 268.16 32.89ZM267.91 36.29C267.9 37.07 268.51 37.59 269.51 37.59C270.5 37.59 271.11 37.07 271.12 36.29C271.11 35.47 270.43 34.89 269.51 34.89C268.58 34.89 267.9 35.47 267.91 36.29ZM264.97 37.27L265.88 37.27L265.82 37.66C265.7 38.47 265.34 39.56 265.17 40.04L264.53 40.04C264.62 39.59 264.82 38.63 264.92 37.67L264.97 37.27Z" fill="#000000" fill-opacity="1.000000" fill-rule="evenodd"/>
	<rect id="Rectangle 1856" rx="-0.500000" width="17.000000" height="83.000000" transform="translate(255.500000 42.773438)" fill="#DE8029" fill-opacity="1.000000"/>
	<path id="0" d="M301.14 49.32C301.14 47.99 302.09 46.88 303.56 46.9C304.76 46.91 306.09 47.66 306.09 50.33C306.09 52.92 305.08 54.37 303.45 54.37C302.23 54.37 301.36 53.59 301.19 52.43L302.06 52.43C302.21 53.1 302.68 53.59 303.45 53.59C304.57 53.59 305.27 52.56 305.27 50.77L305.21 50.77C304.81 51.37 304.17 51.74 303.42 51.74C302.17 51.74 301.14 50.73 301.14 49.32ZM314.61 51.92C314.61 53.28 313.66 54.39 312.18 54.37C310.99 54.35 309.66 53.6 309.66 50.92C309.66 48.35 310.66 46.9 312.3 46.9C313.52 46.9 314.38 47.68 314.56 48.81L313.69 48.81C313.53 48.16 313.07 47.68 312.3 47.68C311.17 47.68 310.49 48.7 310.48 50.48L310.54 50.48C310.93 49.88 311.58 49.51 312.33 49.51C313.57 49.51 314.61 50.52 314.61 51.92ZM305.14 49.31C305.14 48.46 304.47 47.68 303.56 47.68C302.67 47.68 301.99 48.42 301.99 49.32C301.99 50.24 302.64 50.96 303.54 50.96C304.43 50.96 305.14 50.18 305.14 49.31ZM310.61 51.94C310.6 52.81 311.27 53.59 312.18 53.59C313.08 53.59 313.76 52.85 313.76 51.92C313.76 51.02 313.1 50.29 312.21 50.29C311.31 50.29 310.61 51.07 310.61 51.94ZM307.58 53.27L308.49 53.27L308.44 53.66C308.31 54.47 307.95 55.56 307.78 56.04L307.14 56.04C307.23 55.59 307.44 54.63 307.54 53.67L307.58 53.27Z" fill="#000000" fill-opacity="1.000000" fill-rule="evenodd"/>
	<rect id="Rectangle 1856" rx="-0.500000" width="17.000000" height="67.000000" transform="translate(299.500000 58.773438)" fill="#DE8029" fill-opacity="1.000000"/>
	<path id="0" d="M4.42 0L5.31 0L5.31 7.27L4.42 7.27L4.42 0.92L4.38 0.92L2.61 2.1L2.61 1.2L4.42 0ZM10.65 5.78L7.22 5.78L7.22 5.05L10.42 0L11.48 0L11.48 5L12.48 5L12.48 5.78L11.48 5.78L11.48 7.27L10.65 7.27L10.65 5.78ZM8.17 5L10.65 5L10.65 1.12L10.59 1.12L8.17 4.94L8.17 5Z" fill="#000000" fill-opacity="1.000000" fill-rule="evenodd"/>
	<path id="0" d="M12.79 37.63C12.79 40.01 11.87 41.37 10.26 41.37C8.66 41.37 7.74 40.01 7.74 37.63C7.74 35.27 8.67 33.9 10.26 33.9C11.86 33.9 12.79 35.27 12.79 37.63ZM4.92 34L5.81 34L5.81 41.27L4.92 41.27L4.92 34.92L4.88 34.92L3.11 36.1L3.11 35.2L4.92 34ZM8.59 37.63C8.59 39.53 9.21 40.59 10.26 40.59C11.32 40.59 11.94 39.53 11.94 37.63C11.94 35.74 11.32 34.66 10.26 34.66C9.21 34.66 8.59 35.74 8.59 37.63Z" fill="#000000" fill-opacity="1.000000" fill-rule="evenodd"/>
	<path id="0" d="M10.09 72.92C10.09 74.28 9.13 75.39 7.66 75.37C6.47 75.35 5.13 74.6 5.13 71.92C5.13 69.35 6.14 67.9 7.78 67.9C9 67.9 9.86 68.68 10.03 69.81L9.17 69.81C9 69.16 8.54 68.68 7.78 68.68C6.65 68.68 5.96 69.7 5.96 71.48L6.02 71.48C6.41 70.88 7.06 70.51 7.81 70.51C9.05 70.51 10.09 71.52 10.09 72.92ZM6.09 72.94C6.08 73.81 6.75 74.59 7.66 74.59C8.56 74.59 9.24 73.85 9.24 72.92C9.24 72.02 8.58 71.29 7.69 71.29C6.79 71.29 6.09 72.07 6.09 72.94Z" fill="#000000" fill-opacity="1.000000" fill-rule="evenodd"/>
	<path id="0" d="M9.84 109.27L5.25 109.27L5.25 108.63L7.65 106C8.49 105.08 8.88 104.58 8.88 103.91C8.88 103.15 8.28 102.66 7.49 102.66C6.65 102.66 6.11 103.21 6.11 104.04L5.28 104.04C5.28 102.76 6.25 101.9 7.52 101.9C8.8 101.9 9.71 102.79 9.71 103.91C9.71 104.72 9.34 105.35 8.09 106.68L6.46 108.43L6.46 108.49L9.84 108.49L9.84 109.27Z" fill="#000000" fill-opacity="1.000000" fill-rule="evenodd"/>
	<path id="Vector 2" d="M17.75 8.87L16.76 9.86C16.66 9.96 16.5 9.96 16.4 9.86C16.31 9.76 16.31 9.61 16.4 9.51L17.82 8.09C17.92 7.99 18.07 7.99 18.17 8.09L19.59 9.51C19.68 9.61 19.68 9.76 19.59 9.86C19.49 9.96 19.33 9.96 19.23 9.86L18.25 8.87L18.25 126.02L333.39 126.02L332.4 125.03C332.31 124.93 332.31 124.78 332.4 124.68C332.5 124.58 332.66 124.58 332.76 124.68L334.17 126.09C334.27 126.19 334.27 126.35 334.17 126.45L332.76 127.86C332.66 127.96 332.5 127.96 332.4 127.86C332.31 127.76 332.31 127.6 332.4 127.51L333.39 126.52L17.75 126.52L17.75 8.87Z" fill="#000000" fill-opacity="1.000000" fill-rule="evenodd"/>
</svg>
